# xmcd
#
# Track frame offsets: 
#        150
#        19204
#        39231
#        55312
#        72729
#        92890
#        111449
#        130010
#        144311
#        163395
#        174492
#        185371
#        205289
#        220383
#        238816
#        256466
#        273634
#        289941
#
# Disc length: 4080 seconds
#
# Revision: 1
# Processed by: cddbd v1.5.1PL2 Copyright (c) Steve Scherf et al.
# Submitted via: ExactAudioCopy v0.95a4
#
DISCID=230fee12
DTITLE=Various Artist - Only For Radio (Nevembre)
DYEAR=2005
DGENRE=
TTITLE0=Santana feat. Steven Tyler - Just feel better
TTITLE1=Alicia Keys - Unbreakable
TTITLE2=Celine Dion - Je ne vous oublie pas
TTITLE3=Ricky Martin with Fat Joe and Amerie - I don't care
TTITLE4=Destiny's Child - Stand up for love
TTITLE5=Eurythmics - I've got a life
TTITLE6=Barbra Streisand - Stranger in a strange land
TTITLE7=Natalie Imbruglia - Counting down the days
TTITLE8=Foo Fighters - Doa
TTITLE9=Tom Waits - You can never hold back spring
TTITLE10=Pino Daniele - Occhi che sanno parlare
TTITLE11=Gemelli Diversi - A chiara piace vivere
TTITLE12=Le Vibrazioni - Ogni giorno ad ogni ora
TTITLE13=Gianni Morandi - Tu sei diversa
TTITLE14=Ornella Vanoni e Gino Paoli - E m'innamorerai
TTITLE15=Jet Lag feat. La Banda Osiris - Il gangster dell'amore
TTITLE16=Diego Mancino - Un giorno perfetto
TTITLE17=Giorgia - I heard it to the grapevine
EXTD=
EXTT0=
EXTT1=
EXTT2=
EXTT3=
EXTT4=
EXTT5=
EXTT6=
EXTT7=
EXTT8=
EXTT9=
EXTT10=
EXTT11=
EXTT12=
EXTT13=
EXTT14=
EXTT15=
EXTT16=
EXTT17=
PLAYORDER=
